<svg id="Layer_1" data-name="Layer 1" xmlns="http://www.w3.org/2000/svg" viewBox="0 0 960 360"><defs><style>.cls-1{fill:#fd0}</style></defs><path class="cls-1" d="M98.35 221.41a1.2 1.2 0 0 1-.2 1.25 1.39 1.39 0 0 1-1.13.6H64.6a2.58 2.58 0 0 1-2.6-1.85l-10.38-28.73H25.68l-10.59 28.73a2.57 2.57 0 0 1-2.64 1.85H6.89a1.21 1.21 0 0 1-1.06-.6 1.25 1.25 0 0 1-.13-1.25l34.94-95.17a2.48 2.48 0 0 1 2.51-1.85h17.61a2.58 2.58 0 0 1 2.65 1.85zm-49.9-37.59L38.79 157l-9.93 26.87zm93.64-58.77a2.28 2.28 0 0 1 .6 1.59V221a2 2 0 0 1-2.25 2.25H109.2A2 2 0 0 1 107 221v-94.36a2.28 2.28 0 0 1 .6-1.59 2.09 2.09 0 0 1 1.65-.66h31.24a2.12 2.12 0 0 1 1.6.66zm104.43 97.61a1.06 1.06 0 0 1-1 .6h-33a3.36 3.36 0 0 1-3-1.72l-20.39-33.75V221a2 2 0 0 1-2.25 2.25h-31.22a2 2 0 0 1-2.25-2.25v-94.36a2.32 2.32 0 0 1 .59-1.59 2.13 2.13 0 0 1 1.66-.66h31.23a2.13 2.13 0 0 1 1.66.66 2.27 2.27 0 0 1 .59 1.59v43.81l39.18-44.87a3.14 3.14 0 0 1 2.65-1.19h7.41a1.29 1.29 0 0 1 1.19.66 1 1 0 0 1-.26 1.32l-28.46 32.83 35.74 62.21a1.41 1.41 0 0 1-.07 1.25zm64.13-52.61a2.17 2.17 0 0 1 .66 1.59V176a2.12 2.12 0 0 1-.66 1.65 2.28 2.28 0 0 1-1.59.6h-51a2 2 0 0 1-2.25-2.25v-4.37a2.28 2.28 0 0 1 .6-1.59 2.09 2.09 0 0 1 1.65-.66h51a2.17 2.17 0 0 1 1.59.67zm67.5-45.66a34.33 34.33 0 0 1 13.43 2.61 35.2 35.2 0 0 1 11 7.22 34.5 34.5 0 0 1 7.47 10.78 32.14 32.14 0 0 1 2.78 13.24 34.4 34.4 0 0 1-20.78 31.83 33.09 33.09 0 0 1-13.37 2.72h-19.33V221a2 2 0 0 1-2.25 2.25h-31.23a2 2 0 0 1-2.25-2.25v-94.36a2.32 2.32 0 0 1 .59-1.59 2.13 2.13 0 0 1 1.66-.66zm.66 52.81a32.06 32.06 0 0 0 3.51-8.47 41.59 41.59 0 0 0 0-20.32 31.86 31.86 0 0 0-3.51-8.54l-1.52-2.12a12.38 12.38 0 0 0-2.05-2.18 11.22 11.22 0 0 0-2.72-1.65 8 8 0 0 0-3.24-.67h-7.41a2.58 2.58 0 0 0-1.79.67 2.23 2.23 0 0 0-.73 1.72v45.79a2.49 2.49 0 0 0 2.52 2.52h7.41a7.32 7.32 0 0 0 3.24-.73 12.84 12.84 0 0 0 2.72-1.72 12.38 12.38 0 0 0 2.05-2.18zm99.93-57.05a62.1 62.1 0 0 1 23 4.24 60.42 60.42 0 0 1 18.8 11.51 54.12 54.12 0 0 1 12.6 17.1 49.37 49.37 0 0 1 0 41.75 54.29 54.29 0 0 1-12.64 17 60.26 60.26 0 0 1-18.8 11.52 64.26 64.26 0 0 1-45.86 0 60.61 60.61 0 0 1-18.73-11.52 54.29 54.29 0 0 1-12.64-17 49.37 49.37 0 0 1 0-41.75 54.12 54.12 0 0 1 12.64-17.08 60.78 60.78 0 0 1 18.73-11.51 61.64 61.64 0 0 1 22.9-4.26zm13 21.84a12.68 12.68 0 0 0-3.7-9.2 12.34 12.34 0 0 0-9.14-3.77h-.26a12.53 12.53 0 0 0-5 1 12.17 12.17 0 0 0-4 2.78 13.43 13.43 0 0 0-2.72 4.17 13 13 0 0 0-1 5v63.66a12.93 12.93 0 0 0 1 5 13.43 13.43 0 0 0 2.72 4.17 12.17 12.17 0 0 0 4 2.78 12.54 12.54 0 0 0 5 1h.26a12.31 12.31 0 0 0 9.14-3.78 12.66 12.66 0 0 0 3.7-9.2zM598 124.39a44.8 44.8 0 0 1 18.59 3.9A49 49 0 0 1 631.81 139a50.35 50.35 0 0 1 10.33 15.75 49.72 49.72 0 0 1-25.55 64.65 44.65 44.65 0 0 1-18.59 3.86h-48.71A2 2 0 0 1 547 221v-94.36a2.32 2.32 0 0 1 .59-1.59 2.13 2.13 0 0 1 1.66-.66zm-7.28 90a13.43 13.43 0 0 0 8.53-3.24 29.7 29.7 0 0 0 7.15-8.8 51.19 51.19 0 0 0 4.9-12.91 69.42 69.42 0 0 0 0-31.24 51.11 51.11 0 0 0-4.9-12.9 29.57 29.57 0 0 0-7.15-8.8 13.45 13.45 0 0 0-8.53-3.25h-5.43a2.58 2.58 0 0 0-1.79.67 2.23 2.23 0 0 0-.73 1.72V212a2.24 2.24 0 0 0 .73 1.72 2.57 2.57 0 0 0 1.79.66zm115.28-90a44.81 44.81 0 0 1 18.6 3.9A49.22 49.22 0 0 1 739.82 139a50.32 50.32 0 0 1 10.32 15.75 50.05 50.05 0 0 1-10.32 54.06 49.7 49.7 0 0 1-15.22 10.59 44.66 44.66 0 0 1-18.6 3.91h-48.71A2 2 0 0 1 655 221v-94.36a2.28 2.28 0 0 1 .6-1.59 2.09 2.09 0 0 1 1.65-.66zm-7.28 90a13.46 13.46 0 0 0 8.54-3.24 29.68 29.68 0 0 0 7.14-8.8 50.81 50.81 0 0 0 4.9-12.91 69 69 0 0 0 0-31.24 50.74 50.74 0 0 0-4.9-12.9 29.55 29.55 0 0 0-7.14-8.8 13.47 13.47 0 0 0-8.54-3.25h-5.43a2.54 2.54 0 0 0-1.78.67 2.19 2.19 0 0 0-.73 1.72V212a2.21 2.21 0 0 0 .73 1.72 2.53 2.53 0 0 0 1.78.66zm144.8 7.02a1.18 1.18 0 0 1-.2 1.25 1.38 1.38 0 0 1-1.12.6h-32.43a2.59 2.59 0 0 1-2.65-1.85l-10.32-28.73h-25.94l-10.59 28.73a2.59 2.59 0 0 1-2.65 1.85h-5.56a1.23 1.23 0 0 1-1.06-.6 1.27 1.27 0 0 1-.13-1.25l34.94-95.17a2.49 2.49 0 0 1 2.52-1.85h17.6a2.57 2.57 0 0 1 2.65 1.85zm-49.9-37.59L784 157l-10 26.82zm151.55 37.45a1.19 1.19 0 0 1 0 1.33 1.29 1.29 0 0 1-1.19.66h-36.13a2 2 0 0 1-2-1.19l-18-33.49V221a2 2 0 0 1-2.25 2.25h-31.23a2 2 0 0 1-2.25-2.25v-94.36a2.28 2.28 0 0 1 .6-1.59 2.12 2.12 0 0 1 1.65-.66h53.21a32.18 32.18 0 0 1 12.58 2.51 33.72 33.72 0 0 1 10.45 6.88 33.36 33.36 0 0 1 7.15 10.2 29.78 29.78 0 0 1 2.65 12.44 28.84 28.84 0 0 1-4.41 15.42 34.47 34.47 0 0 1-11.12 11.31zm-48.44-41.82a8 8 0 0 0 4.83-1.86 18.35 18.35 0 0 0 4.43-5 28.1 28.1 0 0 0 3.18-7.34 33.13 33.13 0 0 0 0-17.6 28.32 28.32 0 0 0-3.18-7.35 19.48 19.48 0 0 0-4.43-5.1 7.93 7.93 0 0 0-4.83-1.92h-6.35a2.56 2.56 0 0 0-1.79.67 2.19 2.19 0 0 0-.73 1.72v41.42a2.23 2.23 0 0 0 .73 1.73 2.55 2.55 0 0 0 1.79.66z"/></svg>